<?xml version="1.0" encoding="UTF-8"?>
<svg id="Camada_2" data-name="Camada 2" xmlns="http://www.w3.org/2000/svg" width="14.574" height="12.161" viewBox="0 0 14.574 12.161">
<!-- Generator: Sketch 53.2 (72643) - https://sketchapp.com -->
<title>Group</title>
<desc>Created with </desc>
<g id="Camada_1" data-name="Camada 1">
  <path id="Path_93" data-name="Path 93" d="M16.721,11.422a3.588,3.588,0,0,0-.746-.23,4.023,4.023,0,0,1-.51-.155.665.665,0,0,1-.261-.168.342.342,0,0,1-.081-.236.354.354,0,0,1,.162-.317.8.8,0,0,1,.448-.112.79.79,0,0,1,.435.112.423.423,0,0,1,.205.28.149.149,0,0,0,.149.093h.491a.106.106,0,0,0,.112-.112.827.827,0,0,0-.137-.392,1.157,1.157,0,0,0-.367-.354,1.43,1.43,0,0,0-.578-.2V9.264a.118.118,0,0,0-.124-.124H15.6a.124.124,0,0,0-.087.031.118.118,0,0,0-.037.093v.361a1.362,1.362,0,0,0-.8.342.908.908,0,0,0-.292.684.839.839,0,0,0,.286.684,2.2,2.2,0,0,0,.9.386q.367.1.56.168a.777.777,0,0,1,.286.162.317.317,0,0,1,.093.236.379.379,0,0,1-.187.336.982.982,0,0,1-.541.124.926.926,0,0,1-.5-.118.553.553,0,0,1-.242-.3.242.242,0,0,0-.062-.075.168.168,0,0,0-.093,0H14.4a.112.112,0,0,0-.081.031.106.106,0,0,0-.031.075.877.877,0,0,0,.149.448,1.088,1.088,0,0,0,.4.354,1.666,1.666,0,0,0,.622.18V13.7a.118.118,0,0,0,.037.093.124.124,0,0,0,.087.031h.323a.118.118,0,0,0,.124-.124v-.361a1.542,1.542,0,0,0,.877-.336.92.92,0,0,0,.323-.734.9.9,0,0,0-.131-.5A.958.958,0,0,0,16.721,11.422Z" transform="translate(-5.405 -3.457)"/>
  <path id="Path_94" data-name="Path 94" d="M10.365,3.88H8.779v-1.6a.311.311,0,0,0-.311-.311H8.083V.311A.311.311,0,0,0,7.772,0H.311A.311.311,0,0,0,0,.311V2.22a.311.311,0,0,0,.311.311h.41v1.66a.311.311,0,0,0,.311.311h.311V5.795H.41A.311.311,0,0,0,.1,6.106v5.708a.311.311,0,0,0,.311.311H7.872a.311.311,0,0,0,.311-.311V11.5A4.141,4.141,0,1,0,10.365,3.88ZM.622.622h6.84V1.909H.622Zm.721,1.971h6.84V3.88H1.343ZM1.965,4.5H8.183A4.166,4.166,0,0,0,6.877,5.789H1.965ZM6.317,9.613H.721V8.326h5.5a4.11,4.11,0,0,0,.3,1.287Zm-5.6-3.2H6.547A4.11,4.11,0,0,0,6.236,7.7H.721Zm6.84,5.111H.721V10.234H6.871a4.147,4.147,0,0,0,.665.8Zm2.829,0a3.507,3.507,0,0,1-3.04-5.26.3.3,0,0,0,.031-.056,3.507,3.507,0,1,1,3.009,5.316Z"/>
</g>
</svg>